<svg width="118" height="111" viewBox="0 0 118 111" fill="none" xmlns="http://www.w3.org/2000/svg">
<path d="M11.5031 11L7.31321 15.1899C7.11436 15.3884 7.00251 15.6578 7.00226 15.9387C7.00201 16.2197 7.11339 16.4893 7.31189 16.6881C7.51039 16.887 7.77975 16.9988 8.06072 16.9991C8.34169 16.9993 8.61125 16.8879 8.81011 16.6894L13 12.4995L17.1899 16.6894C17.3887 16.8883 17.6584 17 17.9397 17C18.2209 17 18.4906 16.8883 18.6894 16.6894C18.8883 16.4906 19 16.2209 19 15.9397C19 15.6584 18.8883 15.3887 18.6894 15.1899L14.4995 11L18.6894 6.81011C18.8883 6.61125 19 6.34155 19 6.06034C19 5.77912 18.8883 5.50942 18.6894 5.31056C18.4906 5.11171 18.2209 5 17.9397 5C17.6584 5 17.3887 5.11171 17.1899 5.31056L13 9.50046L8.81011 5.31056C8.61125 5.11171 8.34155 5 8.06034 5C7.77912 5 7.50942 5.11171 7.31056 5.31056C7.11171 5.50942 7 5.77912 7 6.06034C7 6.34155 7.11171 6.61125 7.31056 6.81011L11.5031 11Z" fill="#817F7F"/>
<circle cx="83.5" cy="33.5" r="32.5" fill="#6659B8"/>
<path d="M77 23.8685V40.1315C77 40.9302 77.8901 41.4066 78.5547 40.9635L90.7519 32.8321C91.3457 32.4362 91.3457 31.5638 90.7519 31.1679L78.5547 23.0365C77.8901 22.5934 77 23.0698 77 23.8685Z" fill="white"/>
<path fill-rule="evenodd" clip-rule="evenodd" d="M39.4654 46.8608C39.4654 48.8188 37.9044 50.3889 35.9577 50.3889C34.0109 50.3889 32.4499 48.8188 32.4499 46.8608C32.4499 44.9019 34.0109 43.3334 35.9577 43.3334C37.9044 43.3334 39.4654 44.9019 39.4654 46.8608ZM35.9577 56.6667C33.0984 56.6667 30.6569 56.2134 30.6569 54.4002C30.6569 52.5862 33.0827 52.1164 35.9577 52.1164C38.817 52.1164 41.2585 52.5697 41.2585 54.3837C41.2585 56.1969 38.8327 56.6667 35.9577 56.6667ZM40.9644 46.9244C40.9644 47.9225 40.6667 48.8524 40.1444 49.6254C40.0906 49.705 40.1384 49.8123 40.2332 49.8288C40.3637 49.8513 40.4988 49.8641 40.6361 49.8678C42.0053 49.9039 43.2343 49.0175 43.5738 47.6831C44.0767 45.701 42.6 43.9216 40.7197 43.9216C40.5152 43.9216 40.3197 43.9434 40.1294 43.9824C40.1033 43.9884 40.0757 44.0004 40.0608 44.0237C40.0429 44.0522 40.0563 44.0905 40.0742 44.1152C40.6391 44.9115 40.9644 45.8827 40.9644 46.9244ZM43.232 51.2605C44.152 51.4414 44.7572 51.8106 45.0079 52.3473C45.2198 52.7878 45.2198 53.2989 45.0079 53.7387C44.6244 54.571 43.388 54.8382 42.9074 54.9072C42.8082 54.9222 42.7283 54.8359 42.7388 54.7361C42.9843 52.4298 41.0316 51.3363 40.5264 51.0849C40.5048 51.0737 40.5003 51.0564 40.5025 51.0459C40.504 51.0384 40.513 51.0264 40.5294 51.0241C41.6225 51.0039 42.7977 51.154 43.232 51.2605ZM31.3644 49.8678C31.5017 49.8641 31.636 49.8521 31.7673 49.8288C31.8621 49.8123 31.9099 49.705 31.8561 49.6254C31.3338 48.8524 31.0361 47.9225 31.0361 46.9244C31.0361 45.8827 31.3614 44.9115 31.9263 44.1152C31.9442 44.0904 31.9569 44.0522 31.9397 44.0237C31.9248 44.0011 31.8964 43.9884 31.8711 43.9824C31.68 43.9433 31.4845 43.9216 31.2801 43.9216C29.3998 43.9216 27.9231 45.701 28.4267 47.6831C28.7663 49.0175 29.9952 49.9039 31.3644 49.8678ZM31.4976 51.0454C31.4999 51.0567 31.4954 51.0732 31.4745 51.0852C30.9686 51.3366 29.0159 52.4301 29.2613 54.7357C29.2718 54.8362 29.1927 54.9218 29.0935 54.9075C28.6129 54.8385 27.3765 54.5713 26.993 53.739C26.7803 53.2984 26.7803 52.7881 26.993 52.3475C27.2437 51.8109 27.8481 51.4417 28.7681 51.2601C29.2031 51.1542 30.3776 51.0041 31.4715 51.0244C31.4879 51.0267 31.4961 51.0387 31.4976 51.0454Z" fill="#FF6E06"/>
<path fill-rule="evenodd" clip-rule="evenodd" d="M12.9998 59.3334C8.39984 59.3334 4.6665 55.6084 4.6665 51.0001C4.6665 46.4001 8.39984 42.6667 12.9998 42.6667C17.6082 42.6667 21.3332 46.4001 21.3332 51.0001C21.3332 55.6084 17.6082 59.3334 12.9998 59.3334ZM15.6582 54.0917C15.7582 54.1501 15.8665 54.1834 15.9832 54.1834C16.1915 54.1834 16.3998 54.0751 16.5165 53.8751C16.6915 53.5834 16.5998 53.2001 16.2998 53.0167L13.3332 51.2501V47.4001C13.3332 47.0501 13.0498 46.7751 12.7082 46.7751C12.3665 46.7751 12.0832 47.0501 12.0832 47.4001V51.6084C12.0832 51.8251 12.1998 52.0251 12.3915 52.1417L15.6582 54.0917Z" fill="#FF6E06"/>
<path fill-rule="evenodd" clip-rule="evenodd" d="M12.1926 36V29.1578H14.5513L14.9045 26.4913H12.1926V24.7888C12.1926 24.0168 12.4128 23.4907 13.5498 23.4907L15 23.49V21.1051C14.7491 21.0726 13.8883 21 12.8869 21C10.796 21 9.36469 22.2427 9.36469 24.5248V26.4913H7V29.1578H9.36469V36H12.1926Z" fill="#5957BA"/>
<path d="M41.7014 28.6711C41.702 28.16 41.6588 27.6498 41.5722 27.1461H34.4995V30.0346H38.5504C38.4675 30.4959 38.2921 30.9357 38.0346 31.3274C37.7772 31.719 37.4431 32.0546 37.0526 32.3137V34.1886H39.4702C40.8858 32.8834 41.7014 30.9533 41.7014 28.6711Z" fill="#4285F4"/>
<path d="M34.4997 36.0001C36.5235 36.0001 38.2277 35.3355 39.4703 34.1897L37.0527 32.3148C36.3798 32.771 35.5132 33.0314 34.4997 33.0314C32.5435 33.0314 30.8831 31.7127 30.2894 29.9357H27.7988V31.8679C28.423 33.11 29.3802 34.1542 30.5635 34.8839C31.7467 35.6136 33.1095 36 34.4997 36.0001Z" fill="#34A853"/>
<path d="M30.2891 29.9355C29.9752 29.0044 29.9752 27.996 30.2891 27.0648V25.1326H27.7986C27.2735 26.1775 27 27.3307 27 28.5002C27 29.6696 27.2735 30.8228 27.7986 31.8678L30.2891 29.9355Z" fill="#FBBC04"/>
<path d="M34.4997 23.9691C35.5692 23.9517 36.6026 24.3558 37.3766 25.0941L39.5172 22.9536C38.1599 21.6787 36.3617 20.9787 34.4997 21.0005C33.1095 21.0006 31.7467 21.387 30.5635 22.1167C29.3802 22.8463 28.423 23.8905 27.7988 25.1326L30.2894 27.0649C30.8831 25.2879 32.5435 23.9691 34.4997 23.9691Z" fill="#EA4335"/>
<rect x="3" y="70" width="40" height="40" rx="8" fill="#F7F7FF"/>
<path d="M23 81.1753C22.3848 81.1753 21.8861 81.674 21.8861 82.2892V97.7109C21.8861 98.326 22.3848 98.8247 23 98.8247C23.6152 98.8247 24.1138 98.326 24.1138 97.7109V82.2892C24.1138 81.674 23.6152 81.1753 23 81.1753Z" fill="#6F6C90" stroke="#6F6C90" stroke-width="0.3" stroke-linecap="round"/>
<path d="M15.2891 88.8861C14.6739 88.8861 14.1752 89.3848 14.1752 90C14.1752 90.6152 14.6739 91.1138 15.289 91.1138H30.7107C31.3259 91.1138 31.8246 90.6152 31.8246 90C31.8246 89.3848 31.3259 88.8861 30.7107 88.8861H15.2891Z" fill="#6F6C90" stroke="#6F6C90" stroke-width="0.3" stroke-linecap="round"/>
<rect x="47" y="70" width="41.5" height="40" rx="8" fill="#6659B8"/>
<path d="M59.7139 88.8861C59.0987 88.8861 58.6 89.3848 58.6 90C58.6 90.6152 59.0987 91.1138 59.7139 91.1138H75.7861C76.4013 91.1138 76.9 90.6152 76.9 90C76.9 89.3848 76.4013 88.8861 75.7861 88.8861H59.7139Z" fill="white" stroke="white" stroke-width="0.3" stroke-linecap="round"/>
<path d="M28.243 11.656L24 7.414L25.415 7L28.243 9.828L31.071 7L32.486 7.414L28.243 11.657V11.656Z" fill="black"/>
<path d="M42.243 11.656L38 7.414L39.415 7L42.243 9.828L45.071 7L46.486 7.414L42.243 11.657V11.656Z" fill="#807F7F"/>
</svg>
